<svg width="22" height="12" viewBox="0 0 22 12" fill="none" xmlns="http://www.w3.org/2000/svg">
<path d="M21.2221 10.8349C21.1967 10.78 21.173 10.7345 21.151 10.698C20.7866 10.0408 20.0904 9.23407 19.0626 8.27768L19.0409 8.25578L19.03 8.24504L19.019 8.23403H19.008C18.5416 7.78869 18.2462 7.48925 18.1225 7.33594C17.8961 7.0439 17.8454 6.7483 17.9691 6.44878C18.0565 6.22248 18.3848 5.74457 18.9532 5.0144C19.2522 4.62743 19.489 4.31729 19.6638 4.08363C20.9249 2.40443 21.4717 1.33139 21.304 0.864109L21.2388 0.754911C21.195 0.68917 21.0821 0.629028 20.9001 0.57418C20.7176 0.519447 20.4844 0.510395 20.2001 0.546871L17.0512 0.568657C17.0002 0.550553 16.9274 0.552241 16.8325 0.57418C16.7377 0.596119 16.6903 0.607128 16.6903 0.607128L16.6355 0.634552L16.592 0.667499C16.5555 0.689285 16.5154 0.727602 16.4716 0.782374C16.4281 0.836953 16.3917 0.901007 16.3626 0.973997C16.0198 1.85736 15.63 2.67867 15.1925 3.43787C14.9228 3.89058 14.6751 4.28292 14.4489 4.61512C14.223 4.9472 14.0335 5.19187 13.8805 5.3487C13.7273 5.50569 13.5891 5.63146 13.4649 5.72647C13.3409 5.82151 13.2463 5.86167 13.1808 5.84698C13.1151 5.83229 13.0533 5.81771 12.9947 5.80314C12.8927 5.7374 12.8107 5.64799 12.7489 5.53484C12.6867 5.4217 12.6449 5.27928 12.623 5.10772C12.6013 4.93604 12.5884 4.78837 12.5848 4.66421C12.5813 4.54021 12.5829 4.36481 12.5903 4.13851C12.5979 3.9121 12.6013 3.75891 12.6013 3.67859C12.6013 3.40113 12.6067 3.1 12.6175 2.77513C12.6286 2.45026 12.6375 2.19286 12.645 2.00323C12.6524 1.81341 12.6558 1.61258 12.6558 1.40086C12.6558 1.18913 12.643 1.02309 12.6175 0.902579C12.5924 0.78222 12.5538 0.665389 12.503 0.552126C12.4519 0.438977 12.3771 0.35145 12.2789 0.289314C12.1805 0.227255 12.0582 0.178007 11.9126 0.141415C11.5262 0.0538499 11.0343 0.00648098 10.4364 -0.000883262C9.0807 -0.0154583 8.20958 0.0722221 7.82325 0.262043C7.67018 0.342244 7.53166 0.451826 7.40781 0.590442C7.27657 0.751113 7.25827 0.838795 7.35301 0.853216C7.79043 0.918842 8.10009 1.07583 8.28234 1.32403L8.34802 1.45555C8.39911 1.55044 8.45012 1.71844 8.50117 1.95931C8.55214 2.20018 8.58503 2.46664 8.59951 2.75852C8.63589 3.29155 8.63589 3.74783 8.59951 4.12739C8.56301 4.50711 8.52855 4.80271 8.49565 5.01444C8.46276 5.22616 8.41358 5.39772 8.34802 5.52909C8.28234 5.6605 8.23865 5.74081 8.21674 5.76996C8.19487 5.79911 8.17665 5.81749 8.16217 5.8247C8.06743 5.86106 7.96889 5.87958 7.86691 5.87958C7.76477 5.87958 7.64092 5.82842 7.49517 5.72616C7.34945 5.62391 7.19822 5.48345 7.04147 5.30456C6.88473 5.12563 6.70795 4.87559 6.51107 4.5544C6.31435 4.23321 6.11023 3.85361 5.89883 3.41559L5.72394 3.09793C5.6146 2.89357 5.46525 2.59601 5.27572 2.20551C5.08608 1.81486 4.91845 1.43699 4.77274 1.07196C4.71449 0.91865 4.62698 0.801935 4.51037 0.721619L4.45565 0.688671C4.41927 0.659521 4.36086 0.628568 4.28075 0.595582C4.20052 0.562635 4.1168 0.539008 4.02926 0.524471L1.03339 0.546257C0.727256 0.546257 0.519538 0.615719 0.410165 0.75445L0.366392 0.820077C0.344525 0.856629 0.333496 0.915007 0.333496 0.995361C0.333496 1.07568 0.355363 1.17425 0.399136 1.29097C0.836477 2.32043 1.31208 3.31326 1.82593 4.26961C2.33979 5.22597 2.78632 5.99634 3.16526 6.58003C3.54428 7.16414 3.93061 7.71543 4.32425 8.23361C4.7179 8.75198 4.97846 9.08418 5.10595 9.23012C5.23359 9.37633 5.33385 9.48565 5.40673 9.55864L5.68013 9.82141C5.85506 9.99666 6.11195 10.2065 6.45091 10.4511C6.78995 10.6957 7.16528 10.9366 7.57712 11.1741C7.98903 11.4111 8.46823 11.6046 9.01498 11.7542C9.56166 11.904 10.0937 11.9641 10.6113 11.9351H11.8687C12.1237 11.913 12.3169 11.8327 12.4483 11.6941L12.4918 11.6392C12.521 11.5957 12.5484 11.528 12.5737 11.4369C12.5993 11.3456 12.612 11.2451 12.612 11.1357C12.6045 10.8219 12.6284 10.539 12.6829 10.2872C12.7374 10.0354 12.7995 9.84557 12.869 9.71774C12.9384 9.59001 13.0168 9.48223 13.104 9.39486C13.1914 9.30729 13.2536 9.25425 13.2902 9.23599C13.3265 9.21762 13.3555 9.20515 13.3773 9.19767C13.5523 9.1393 13.7581 9.19583 13.9953 9.36755C14.2322 9.53911 14.4544 9.75095 14.6623 10.0027C14.8701 10.2547 15.1197 10.5374 15.4112 10.8513C15.7029 11.1653 15.9579 11.3987 16.1765 11.5522L16.3951 11.6836C16.5411 11.7713 16.7306 11.8516 16.9639 11.9246C17.1968 11.9975 17.4009 12.0158 17.5761 11.9793L20.375 11.9356C20.6519 11.9356 20.8673 11.8897 21.0201 11.7986C21.1732 11.7073 21.2641 11.6068 21.2935 11.4975C21.3227 11.388 21.3243 11.2638 21.299 11.125C21.2731 10.9865 21.2476 10.8896 21.2221 10.8349Z" fill="white"/>
</svg>
